<svg preserveAspectRatio="none" overflow="visible" style="display: block;" width="32" height="32" viewBox="0 0 32 32" fill="none" xmlns="http://www.w3.org/2000/svg">
<g id="linkedin">
<path id="vector" d="M28.8 25.2444C28.8 27.2085 27.2085 28.8 25.2444 28.8H6.75556C4.79218 28.8 3.2 27.2085 3.2 25.2444V6.75556C3.2 4.79147 4.79218 3.2 6.75556 3.2H25.2444C27.2085 3.2 28.8 4.79147 28.8 6.75556V25.2444Z" fill="black"/>
<path id="vector_2" d="M7.46667 12.4444H11.0222V24.5333H7.46667V12.4444ZM9.23378 11.0222H9.21387C8.15289 11.0222 7.46667 10.2315 7.46667 9.24373C7.46667 8.23467 8.17422 7.46667 9.2544 7.46667C10.336 7.46667 11.0023 8.23467 11.0222 9.24373C11.0222 10.2308 10.336 11.0222 9.23378 11.0222ZM24.5333 24.5333H20.9778V18.0629C20.9778 16.4999 20.1067 15.4332 18.7079 15.4332C17.6405 15.4332 17.0631 16.1529 16.7829 16.8484C16.6805 17.0972 16.7111 17.7856 16.7111 18.1333V24.5333H13.1556V12.4444H16.7111V14.3047C17.2238 13.5111 18.0267 12.4444 20.0804 12.4444C22.6247 12.4444 24.5326 14.0444 24.5326 17.6171L24.5333 24.5333Z" fill="white"/>
</g>
</svg>
