<svg preserveAspectRatio="none" overflow="visible" style="display: block;" width="34" height="23.34" viewBox="0 0 34 23.34" fill="none" xmlns="http://www.w3.org/2000/svg">
<g id="Frame 1171275628">
<g id="Vector">
<path d="M31.4523 9.64389C31.9702 9.64102 32.5876 9.22293 32.8433 8.73992L33.8782 6.90143C33.973 6.73343 34 6.59883 34 6.45947C34 6.1521 33.8382 5.99841 33.5025 5.99841L21.1359 5.99841C20.618 6.00128 20.0005 6.41938 19.7448 6.90238L15.1376 15.0954C15.0427 15.2634 15.0158 15.398 15.0158 15.5374C15.0158 15.8447 15.1775 15.9984 15.5132 15.9984L19.9299 15.9984C20.4478 15.9946 21.0652 15.5765 21.3209 15.0944L25.4205 7.8054C25.5683 7.55531 25.7822 7.34053 26.0509 7.16012C26.3196 6.97875 26.5688 6.90238 26.8115 6.90238C27.1481 6.90238 27.3164 7.04843 27.3164 7.35485C27.3164 7.49421 27.2671 7.63835 27.1862 7.8054L26.66 8.74183C26.5651 8.90983 26.5381 9.04442 26.5381 9.18379C26.5381 9.49116 26.6999 9.64484 27.0356 9.64484L31.4523 9.64389Z" fill="black"/>
<path d="M2.67976 10.546C2.58491 10.714 2.55795 10.8485 2.55795 10.9879C2.55795 11.2953 2.71974 11.449 3.05541 11.449L9.23782 11.449C9.57441 11.449 9.74271 11.595 9.74271 11.9014C9.74271 12.0408 9.69343 12.1849 9.61254 12.352L8.57764 14.1914C8.4298 14.4415 8.21594 14.6563 7.94722 14.8367C7.6785 15.0181 7.42931 15.0944 7.18662 15.0944C6.85002 15.0944 6.68173 14.9484 6.68173 14.642C6.68173 14.5026 6.73101 14.3585 6.8119 14.1914L7.33818 13.255C7.43303 13.087 7.45999 12.9524 7.45999 12.813C7.45999 12.5057 7.2982 12.352 6.96253 12.352H2.54679C2.02888 12.3548 1.41148 12.7729 1.15577 13.256L0.121807 15.0954C0.0269649 15.2634 0 15.398 0 15.5374C0 15.8447 0.16179 15.9984 0.497457 15.9984L12.8632 15.9984C13.3811 15.9955 13.9985 15.5775 14.2542 15.0944L16.3036 11.4509C16.3984 11.2829 16.4254 11.1483 16.4254 11.0089C16.4254 10.7015 16.2636 10.5479 15.9279 10.5479L9.7455 10.5479C9.4089 10.5479 9.24061 10.4018 9.24061 10.0954C9.24061 9.95603 9.28989 9.81189 9.37078 9.64484L10.4057 7.8054C10.5535 7.55531 10.7674 7.34053 11.0361 7.16012C11.3048 6.97875 11.554 6.90238 11.7967 6.90238C12.1333 6.90238 12.3016 7.04843 12.3016 7.35485C12.3016 7.49421 12.2523 7.63835 12.1714 7.8054L11.6451 8.74183C11.5503 8.90983 11.5233 9.04442 11.5233 9.18379C11.5233 9.49116 11.6851 9.64484 12.0208 9.64484L16.4375 9.64484C16.9554 9.64198 17.5728 9.22388 17.8285 8.74087L18.8634 6.90238C18.9582 6.73438 18.9852 6.59979 18.9852 6.46042C18.9833 6.15305 18.8225 5.99841 18.4868 5.99841L6.12011 5.99841C5.6022 6.00128 4.98479 6.41938 4.72909 6.90238L2.67976 10.546Z" fill="black"/>
</g>
</g>
</svg>
