<svg width="43" height="12" viewBox="0 0 43 12" fill="none" xmlns="http://www.w3.org/2000/svg">
<path d="M23.3506 0C23.7941 0 24.0158 0.183585 23.999 0.583008C23.9989 0.749316 23.9305 0.932291 23.8115 1.13184L22.5332 3.3125C22.363 3.61201 22.0902 3.8618 21.749 4.07812C21.4087 4.29436 21.0675 4.39346 20.7607 4.39355H15.1865C14.7606 4.39355 14.5557 4.21082 14.5557 3.84473C14.5557 3.67843 14.6244 3.49544 14.7266 3.2959L15.374 2.19727C15.4931 1.99752 15.5449 1.8139 15.5449 1.64746C15.5448 1.28155 15.3231 1.09872 14.8975 1.09863C14.5906 1.09863 14.2669 1.19871 13.9258 1.41504C13.5678 1.61479 13.3118 1.88108 13.1416 2.18066L11.8457 4.36035C11.7434 4.5601 11.6924 4.74371 11.6924 4.91016C11.6925 5.27604 11.9141 5.45893 12.3398 5.45898H20.1641C20.59 5.45898 20.7949 5.64267 20.7949 6.00879C20.7948 6.1751 20.7262 6.35806 20.624 6.55762L18.0332 10.918C17.863 11.2175 17.5902 11.4672 17.249 11.6836C16.9087 11.8999 16.5675 11.9999 16.2607 12H0.630859C0.205077 12 0.000157183 11.8171 0 11.4512C0 11.2847 0.0676424 11.1011 0.169922 10.9014L0.255859 10.752L2.0791 8.08887C2.14687 8.03908 2.1982 7.98929 2.2666 7.95605C2.60707 7.73969 2.93142 7.63965 3.23828 7.63965H8.81152C9.23741 7.63965 9.4599 7.82245 9.45996 8.18848C9.45996 8.35492 9.39155 8.53854 9.27246 8.73828L8.6416 9.83594C8.52251 10.0357 8.4541 10.2193 8.4541 10.3857C8.45418 10.7517 8.67594 10.9345 9.10156 10.9346C9.40839 10.9346 9.73208 10.8345 10.0732 10.6182C10.4137 10.4018 10.6697 10.1355 10.8574 9.83594L12.1357 7.65625C12.2724 7.45651 12.3398 7.27289 12.3398 7.10645C12.3397 6.7405 12.1182 6.55762 11.6924 6.55762H3.86914C3.44276 6.55757 3.22187 6.37461 3.22168 6.00879C3.22168 5.84235 3.28936 5.65866 3.40918 5.45898L3.78418 4.80957L5.52246 1.83105L5.96582 1.08203C6.136 0.782563 6.40873 0.53271 6.74902 0.316406C7.09007 0.100135 7.41396 8.48552e-05 7.7207 0H23.3506ZM41.8516 0.0332031C42.261 0.0332284 42.4579 0.21657 42.458 0.583008C42.458 0.749683 42.4082 0.933764 42.293 1.13379L41.0479 3.31641C40.8842 3.61637 40.6381 3.88299 40.2939 4.08301C39.9497 4.29966 39.6547 4.40038 39.3604 4.40039H34.001C33.5914 4.40039 33.3779 4.21624 33.3779 3.84961C33.378 3.68305 33.4269 3.49966 33.542 3.2998L34.1641 2.2002C34.2623 2.00038 34.328 1.8169 34.3281 1.65039C34.3281 1.28369 34.1313 1.09961 33.7217 1.09961C33.4266 1.09962 33.1152 1.20034 32.7871 1.41699C32.4599 1.63361 32.1975 1.88369 32.0332 2.18359L27.0508 10.9004C26.8871 11.2002 26.641 11.467 26.2969 11.6836C25.9691 11.9 25.6581 11.9999 25.3633 12H20.0029C19.5937 11.9999 19.3809 11.8166 19.3809 11.4502C19.3809 11.2836 19.4305 11.1003 19.5449 10.9004L25.1328 1.08301C25.2972 0.783035 25.5435 0.516345 25.8877 0.316406C26.2149 0.0998146 26.543 8.60949e-05 26.8379 0H41.8516V0.0332031Z" fill="black"/>
</svg>
